HIERARCHY
ROOT Hips
{
    OFFSET 0.000000 0.000000 0.000000
    CHANNELS 6 Xposition Yposition Zposition Zrotation Yrotation Xrotation
    JOINT LeftUpLeg
    {
        OFFSET 1.363060 -1.794630 0.839290
        CHANNELS 3 Zrotation Yrotation Xrotation
        JOINT LeftLeg
        {
            OFFSET 2.448110 -6.726130 0.000000
            CHANNELS 3 Zrotation Yrotation Xrotation
            JOINT LeftFoot
            {
                OFFSET 2.562200 -7.039589 0.000000
                CHANNELS 3 Zrotation Yrotation Xrotation
                JOINT LeftToeBase
                {
                    OFFSET 0.157640 -0.433110 2.322550
                    CHANNELS 3 Zrotation Yrotation Xrotation
                    End Site
                    {
                        OFFSET 0.000000 0.000000 0.000000
                    }
                }
            }
        }
    }
    JOINT RightUpLeg
    {
        OFFSET -1.305520 -1.794630 0.839290
        CHANNELS 3 Zrotation Yrotation Xrotation
        JOINT RightLeg
        {
            OFFSET -2.542530 -6.985549 0.000000
            CHANNELS 3 Zrotation Yrotation Xrotation
            JOINT RightFoot
            {
                OFFSET -2.568260 -7.056230 0.000000
                CHANNELS 3 Zrotation Yrotation Xrotation
                JOINT RightToeBase
                {
                    OFFSET -0.164730 -0.452590 2.363150
                    CHANNELS 3 Zrotation Yrotation Xrotation
                    End Site
                    {
                        OFFSET 0.000000 0.000000 0.000000
                    }
                }
            }
        }
    }
    JOINT Spine
    {
        OFFSET 0.028270 2.035590 -0.193380
        CHANNELS 3 Zrotation Yrotation Xrotation
        JOINT Spine1
        {
            OFFSET 0.056720 2.048850 -0.042750
            CHANNELS 3 Zrotation Yrotation Xrotation
            JOINT Neck1
            {
                OFFSET -0.054170 1.746240 0.172020
                CHANNELS 3 Zrotation Yrotation Xrotation
                JOINT Head
                {
                    OFFSET 0.104070 1.761360 -0.123970
                    CHANNELS 3 Zrotation Yrotation Xrotation
                    End Site
                    {
                        OFFSET 0.000000 0.000000 0.000000
                    }
                }
            }
            JOINT LeftShoulder
            {
                OFFSET 0.000000 0.000000 0.000000
                CHANNELS 3 Zrotation Yrotation Xrotation
                JOINT LeftArm
                {
                    OFFSET 3.362410 1.200890 -0.311210
                    CHANNELS 3 Zrotation Yrotation Xrotation
                    JOINT LeftForeArm
                    {
                        OFFSET 4.983000 -0.000000 -0.000000
                        CHANNELS 3 Zrotation Yrotation Xrotation
                        JOINT LeftHand
                        {
                            OFFSET 3.483560 -0.000000 -0.000000
                            CHANNELS 3 Zrotation Yrotation Xrotation
                            End Site
                            {
                                OFFSET 0.000000 0.000000 0.000000
                            }
                        }
                    }
                }
            }
            JOINT RightShoulder
            {
                OFFSET 0.000000 0.000000 0.000000
                CHANNELS 3 Zrotation Yrotation Xrotation
                JOINT RightArm
                {
                    OFFSET -3.136600 1.374050 -0.404650
                    CHANNELS 3 Zrotation Yrotation Xrotation
                    JOINT RightForeArm
                    {
                        OFFSET -5.241900 -0.000000 -0.000000
                        CHANNELS 3 Zrotation Yrotation Xrotation
                        JOINT RightHand
                        {
                            OFFSET -3.444170 -0.000000 -0.000000
                            CHANNELS 3 Zrotation Yrotation Xrotation
                            End Site
                            {
                                OFFSET 0.000000 0.000000 0.000000
                            }
                        }
                    }
                }
            }
        }
    }
}
MOTION
Frames: 18
Frame Time: 0.016667
25.187302 17.395117 17.277416 -0.322076 1.029652 13.972089 -21.344582 7.686970 -21.161242 -42.934578 -39.870846 70.965874 -23.564529 65.472130 -44.452991 0.098182 0.884560 -0.066793 13.666195 3.289253 -15.592441 21.657297 23.560848 50.175896 26.507395 -42.249294 -45.449509 -0.474099 -1.736539 -3.355406 2.293072 3.260521 -3.375640 -2.127561 1.565107 -3.137890 5.400288 -2.186892 13.751822 -3.048446 -0.954113 -17.176702 4.966973 -6.477223 1.590045 -57.387798 -2.694067 9.266954 33.794998 -33.057831 132.642853 176.114792 -56.698086 -175.751526 -4.076309 7.859046 -0.865366 55.669376 9.429504 2.607801 -4.072932 42.364056 7.651222 -10.165110 6.205565 8.802308 
25.264214 17.575560 17.325979 -0.588837 1.004297 14.022450 -20.134909 5.294426 -19.264238 -33.670132 -37.589508 59.979866 -20.667252 60.563560 -35.606457 -0.225290 0.550359 -1.872943 12.190452 6.985636 -15.885958 26.552715 23.153950 53.013748 30.660624 -47.839676 -47.940628 -0.361012 -1.356103 -4.651253 2.578772 2.739187 -3.145620 -1.321722 1.330091 -2.813102 5.153484 -1.778985 13.369086 -3.258006 -0.654902 -17.594433 3.255632 -7.324848 1.374871 -62.186539 -3.714081 10.358968 26.519266 -28.854309 138.205292 175.535370 -60.926361 174.207550 -1.105050 8.299646 0.171547 59.432415 10.974946 9.842516 -7.518655 29.815241 5.535097 -7.400192 5.881605 8.427610 
25.347443 17.791483 17.382212 -1.055498 0.792990 13.999401 -19.183872 4.297052 -18.050882 -26.964865 -35.062721 52.038765 -19.114784 56.490974 -27.912979 -0.500169 0.315028 -3.495370 10.974828 9.287951 -17.025923 30.384144 22.444168 55.415825 33.364044 -52.089428 -46.401703 -0.374140 -1.363518 -3.427688 2.917490 2.112590 -2.992850 -0.420056 1.027195 -2.301435 4.931712 -1.344697 13.060643 -3.367782 -0.283012 -17.790188 1.576460 -8.014309 1.222774 -67.342445 -5.641777 13.377048 19.675053 -22.078125 153.160049 159.528748 -62.193512 -178.169540 1.780589 8.533721 1.482912 62.815548 12.155965 18.493515 -8.492993 17.574009 2.204572 -5.528289 4.264869 4.445773 
25.430948 18.013777 17.446814 -1.531670 0.336125 14.010148 -18.695263 4.749713 -17.444727 -23.647278 -34.400425 47.978848 -19.857866 54.650360 -22.814896 -1.004153 -0.959441 -6.200346 10.599936 9.421737 -19.332720 34.762905 23.001839 59.705124 34.701595 -57.848949 -42.562435 0.114807 0.605175 -7.125247 3.223819 1.137664 -3.093527 -0.067585 0.525214 -1.885782 5.220563 -0.825877 13.185016 -3.532959 0.270561 -17.529715 -1.030309 -8.960938 0.720740 -70.551193 -7.056383 21.362045 9.352167 -17.319613 97.806946 -12.923054 -89.189644 -55.377777 4.395142 8.884242 2.897304 66.503746 12.585961 28.405769 -6.645918 7.368238 -3.541308 -3.951212 2.241379 -2.758013 
25.520626 18.215429 17.517832 -1.861192 -0.263815 14.083440 -18.532488 5.545049 -16.873381 -21.255724 -34.391911 44.799984 -21.807043 52.800930 -20.928791 -0.848317 -1.330987 -4.893093 10.964513 7.843680 -22.333330 39.641605 24.020409 65.665520 28.400837 -63.506512 -34.866852 -0.104823 -0.347830 -4.590944 3.728508 -0.745368 -3.396182 -1.783824 -0.397102 -1.777253 6.811522 -0.715465 14.031014 -3.674968 0.484286 -17.487019 -7.998379 -11.007988 0.111129 -67.224976 -7.646174 29.504959 8.255186 -9.417570 -67.719627 -3.764308 9.046297 22.956776 7.654054 10.317202 4.105026 70.891914 11.279607 39.774391 -3.372395 0.117783 -11.549823 0.485176 0.617388 -11.493485 
25.607470 18.361656 17.591766 -2.139963 -0.385971 14.006240 -18.701696 7.011173 -16.605658 -20.111483 -35.274094 43.264091 -21.817251 52.631901 -17.749277 -1.069713 -1.852159 -6.222696 12.165006 4.802981 -25.496429 46.298378 25.603394 74.179276 27.089054 -67.695457 -35.830349 0.029020 0.196280 -5.472764 4.450688 -2.075619 -3.677304 -2.080082 -1.059590 -1.201336 6.860751 0.106370 14.238280 -3.697984 1.350317 -16.322800 -9.031252 -11.665257 0.628381 -71.776909 -7.695496 42.820446 6.034965 -4.459513 -47.091213 -3.419422 2.478925 7.705734 8.398512 10.326777 4.615906 74.928162 9.133692 48.303162 0.264413 -3.949732 -18.621147 5.077824 -0.004703 -18.646137 
25.703852 18.445892 17.671038 -2.412415 -0.563486 13.880226 -19.160055 8.281864 -16.425108 -21.765612 -37.899792 45.190128 -22.634243 54.978561 -18.776064 -1.066998 -2.082079 -6.080792 12.996476 2.444577 -28.059946 48.554367 26.230255 77.525993 24.050327 -69.798042 -34.269165 0.001491 0.100599 -6.367791 5.329241 -3.511330 -3.715878 -2.597138 -1.776443 -0.700529 7.033925 0.865120 14.459743 -4.274449 2.082786 -16.194214 -9.681938 -12.253036 1.124282 -75.482010 -8.156089 52.119564 4.766992 -0.814431 -33.029964 -4.348140 -0.641557 7.622336 8.583190 10.140821 4.862419 77.534767 6.472442 48.835205 3.297170 -4.929729 -21.060699 8.591106 -2.387419 -21.232054 
25.805595 18.475180 17.751993 -2.798621 -0.460770 13.695145 -19.608885 9.350092 -16.167236 -21.571260 -38.728401 45.113571 -21.946672 56.875301 -18.484451 -0.984940 -1.550981 -5.758131 12.537247 2.353107 -29.337593 47.246407 26.577000 75.355965 22.961048 -69.650330 -34.195473 -0.166740 -0.593047 -4.849445 6.369969 -5.248910 -3.515212 -2.979628 -2.657419 -0.215644 7.263547 1.995065 14.351802 -5.094575 3.066133 -16.311428 -10.160893 -12.675653 1.493168 -78.448227 -9.377854 53.297832 4.129385 1.044164 -23.777279 -6.690787 -2.880260 5.093008 8.856966 9.490953 5.174443 78.480042 3.834790 44.220783 2.620163 -5.042976 -17.595337 9.135317 -5.284929 -18.310545 
25.906582 18.455391 17.819277 -3.164131 -0.628999 13.562645 -20.246799 10.626542 -15.902860 -18.132330 -37.064774 41.478180 -21.261646 56.629128 -16.513643 -1.047099 -1.567902 -6.202750 11.769946 2.930147 -30.198223 42.358582 27.051964 69.546883 23.975468 -66.607597 -35.952637 0.154859 0.704861 -5.421405 7.234382 -6.950087 -2.974767 -3.168702 -3.568473 0.136433 6.953450 3.378228 13.911013 -4.727069 4.293388 -16.850863 -10.847013 -12.214770 1.594667 -80.329727 -10.834080 53.323483 4.288911 1.171379 -21.802467 -9.843292 -7.628388 2.664695 9.819094 7.994166 5.587408 77.122902 2.235029 39.223083 0.733411 -4.002375 -15.073773 5.036600 -3.067714 -15.318956 
26.012650 18.403500 17.871714 -3.489954 -1.114250 13.674480 -20.803621 10.887457 -15.559142 -15.500698 -35.194004 38.517036 -20.855232 56.437038 -16.653028 -1.056073 -1.943140 -6.073102 10.979384 4.266997 -30.850391 35.949291 27.551613 62.213631 20.413303 -63.232292 -33.102627 -0.089819 -0.284933 -5.772721 8.015484 -8.342212 -2.423477 -3.425615 -4.371646 0.182140 6.941543 4.860294 13.605777 -5.004664 5.624202 -17.540037 -11.290205 -11.434564 1.949666 -80.735191 -13.385766 50.212837 4.807210 0.126243 -14.699477 -14.001905 -13.007434 3.201664 10.290409 6.312035 5.206169 75.492157 0.248405 36.437885 -0.698514 -1.780819 -14.672188 6.911716 3.031269 -14.414942 
26.098146 18.311373 17.940742 -3.797581 -2.066294 13.645141 -21.322830 11.437183 -15.023002 -12.862263 -33.250290 35.602589 -19.098923 55.310211 -15.046837 -1.044396 -1.433419 -6.251405 10.286857 6.465601 -31.126717 28.256927 27.336651 54.061367 20.245428 -58.760410 -31.432291 -0.114027 -0.384160 -5.308447 8.457107 -9.792241 -1.882579 -3.727253 -5.146828 -0.319671 6.742754 6.173457 13.996158 -4.528648 7.007009 -18.247608 -11.470239 -10.935251 1.661635 -78.189949 -15.091216 44.868492 9.728275 -2.840198 -13.716761 1.821983 -4.012291 -13.050405 10.193532 5.142340 4.670766 73.517937 -2.348066 34.266167 -2.044623 -0.230943 -14.423258 8.080032 5.978411 -13.737811 
26.174154 18.187704 18.015539 -4.086233 -3.459424 13.783175 -21.802176 11.708007 -14.477641 -11.123901 -31.990425 33.990242 -20.021046 54.120216 -17.590622 -0.757788 -1.999250 -3.808154 9.583636 9.402781 -31.743418 22.263813 27.013826 47.482838 16.332216 -56.421429 -27.946997 -0.417863 -1.553977 -4.051101 8.734785 -11.095586 -1.562236 -3.659959 -5.841762 -0.928422 6.513129 7.177338 14.874979 -5.474065 8.092847 -19.538584 -10.564318 -10.656394 1.117296 -75.551880 -16.094454 39.121002 10.792687 -5.963509 -9.035469 5.604224 -3.378509 -7.962459 9.523706 4.257095 4.112743 70.719246 -5.111438 32.064449 -3.381412 0.496505 -14.995692 5.706318 3.138468 -14.738855 
26.234753 18.026796 18.097422 -4.353190 -5.424838 13.826583 -21.596272 9.835361 -12.729731 -9.515572 -29.490400 32.006813 -21.366579 52.351250 -21.474146 -0.769254 -1.482630 -4.230750 8.978812 12.429971 -32.277828 13.375868 23.037367 38.167980 15.254641 -48.717899 -23.869324 -0.202362 -0.730284 -4.541914 8.669443 -12.036459 -1.175040 -3.457716 -6.330463 -1.285862 6.210853 7.994751 15.601171 -6.423520 9.017052 -20.306992 -9.383006 -10.586179 0.716816 -71.992104 -16.923063 35.264374 11.299480 -8.391850 -7.935127 7.478318 -2.622379 -6.381530 8.729772 3.800944 3.818336 66.956535 -6.788483 27.444878 -3.619283 0.879268 -13.111369 3.194762 2.104594 -12.995120 
26.276932 17.844349 18.187065 -4.598387 -7.479848 13.961351 -21.477634 8.972634 -11.296120 -8.750809 -28.520575 30.698774 -21.272387 51.879025 -22.782000 -0.520250 -0.362587 -3.204924 7.386155 17.027203 -32.748508 6.545858 16.975969 29.626062 12.750323 -42.560883 -18.701488 -0.200347 -0.714887 -3.933730 8.358141 -12.761910 -0.893729 -3.145725 -6.683566 -1.633632 6.076740 8.770643 16.341785 -7.320534 9.912402 -20.776867 -8.135257 -10.482358 0.470566 -67.737709 -17.532856 32.809086 11.385030 -9.847795 -8.945798 8.604786 -2.165505 -7.084205 7.929736 3.422601 3.357852 62.667995 -8.569666 22.912603 -3.534408 1.745892 -11.406356 1.372089 1.368983 -11.290412 
26.313848 17.659910 18.274565 -4.697070 -9.813435 14.029612 -21.645777 8.195930 -9.981761 -6.561814 -25.040075 28.224619 -21.771572 47.735489 -24.103838 -0.235655 0.469266 -1.883874 5.401494 21.646349 -33.677773 1.742063 10.012709 22.558628 12.490503 -36.389671 -15.014008 -0.448181 -1.686491 -4.387007 7.780417 -13.131512 -0.575797 -2.922892 -6.834561 -1.967015 6.063584 9.552011 16.982311 -7.808977 10.852117 -20.724728 -7.028012 -10.504655 0.304459 -62.820869 -17.787745 31.548969 11.364642 -10.209378 -11.438062 8.420487 -1.631123 -9.356074 7.102799 3.358280 2.800817 57.974857 -10.382921 17.647236 -2.709235 2.806433 -9.781137 -0.410845 0.567636 -9.607204 
26.343294 17.488907 18.379141 -4.683519 -11.929814 13.888817 -21.986286 7.126167 -7.874939 -4.249961 -21.484747 24.717733 -21.679117 43.950371 -24.821552 0.142678 0.383905 0.613857 2.631532 26.442135 -34.433289 -2.112792 -3.368436 13.973035 12.348604 -27.518412 -10.557019 -0.191697 -0.689398 -4.623232 7.187596 -13.506598 -0.298156 -2.775031 -6.994283 -2.242063 5.948716 10.137188 17.704695 -8.088853 11.584317 -20.921772 -6.139695 -10.506897 0.051833 -57.389812 -17.412697 30.122087 10.707489 -10.171031 -12.926419 8.268680 -1.246966 -10.879445 6.444318 3.276517 2.399369 52.692581 -11.792615 11.385454 -1.095526 3.884017 -7.567236 -1.448724 0.535327 -7.362639 
26.356255 17.354053 18.499151 -4.629348 -13.982605 13.928140 -22.633764 6.980166 -6.828013 -3.781693 -20.563740 23.828297 -20.064754 44.078583 -24.854301 0.016181 0.970319 -0.643892 0.787901 28.694489 -36.664570 -1.947736 -8.641932 10.799100 15.681034 -23.176630 -11.747130 -0.231312 -0.844577 -4.589026 6.560224 -13.766096 -0.280166 -2.600831 -7.081197 -2.384328 5.994159 10.798032 18.040209 -8.539883 12.304686 -20.756899 -5.475242 -10.455972 -0.094834 -51.649178 -16.946812 29.192133 9.492198 -9.516500 -13.766253 6.434037 -1.226917 -11.966367 5.947148 3.143070 2.133358 47.368622 -12.788312 5.763751 0.589048 4.597510 -5.491786 -1.628873 0.825490 -5.308970 
26.372957 17.256294 18.626322 -4.692627 -15.694496 14.015837 -23.439632 9.288026 -6.732667 -0.813307 -15.783396 20.131626 -18.926687 37.980442 -21.267464 -0.038611 0.781735 -0.849934 3.112140 26.533989 -39.167843 -2.632595 -12.240400 8.954934 16.697357 -15.622058 -10.728247 -0.281158 -1.029784 -4.147201 6.203283 -13.985571 -0.305907 -2.495015 -7.166398 -2.515938 5.979273 11.339339 18.182379 -8.602118 12.888467 -20.380819 -5.065954 -10.537263 -0.156927 -45.551601 -16.023046 27.508640 8.363212 -9.012916 -14.252161 7.340448 -0.655727 -12.685238 5.587873 3.128274 1.804230 42.265701 -13.746995 1.927332 1.621532 5.183580 -5.045789 -3.068744 0.142131 -4.818799 
